<svg width="21" height="18" viewBox="0 0 21 18" fill="none" xmlns="http://www.w3.org/2000/svg">
<path d="M18.375 2.625H15.1875L14.4281 0.496875C14.3757 0.351253 14.2795 0.225379 14.1528 0.136447C14.0261 0.0475157 13.8751 -0.000136551 13.7203 2.93913e-07H6.52969C6.21328 2.93913e-07 5.92969 0.199219 5.82422 0.496875L5.0625 2.625H1.875C0.839062 2.625 0 3.46406 0 4.5V15.1875C0 16.2234 0.839062 17.0625 1.875 17.0625H18.375C19.4109 17.0625 20.25 16.2234 20.25 15.1875V4.5C20.25 3.46406 19.4109 2.625 18.375 2.625ZM10.125 13.3125C8.05313 13.3125 6.375 11.6344 6.375 9.5625C6.375 7.49062 8.05313 5.8125 10.125 5.8125C12.1969 5.8125 13.875 7.49062 13.875 9.5625C13.875 11.6344 12.1969 13.3125 10.125 13.3125ZM7.875 9.5625C7.875 10.1592 8.11205 10.7315 8.53401 11.1535C8.95597 11.5754 9.52826 11.8125 10.125 11.8125C10.7217 11.8125 11.294 11.5754 11.716 11.1535C12.1379 10.7315 12.375 10.1592 12.375 9.5625C12.375 8.96576 12.1379 8.39347 11.716 7.97151C11.294 7.54955 10.7217 7.3125 10.125 7.3125C9.52826 7.3125 8.95597 7.54955 8.53401 7.97151C8.11205 8.39347 7.875 8.96576 7.875 9.5625Z" fill="white"/>
</svg>
